<svg viewBox="0 0 219.27 53.23" fill="var(--text-color)">
  <path d="M50,26.27H67.74v17.51H53.13v8.6h14.6v17.51H50ZM67.91,62.38a4.24,4.24,0,0,1,.52.57,0,0,1,.42.17V79.19H50V26.42h18.78a0.77,0.77,0,0,1,.42,0,0.75,0.75,0,0,1,.16.42v17.38H67.91Z"/>
  <path d="M103.62,26.27h17.64v17.52h-17.6c0,5.62.05,11.4,0.05,17.36v0.13h17.6v17.52h-17.6V79.19H120v-0.13c0-5.95,0-11.74,0-17.36h0c0-5.52,0-11.3,0-17.36h0c0-5.62,0-11.4,0-17.36v-0.13Z"/>
  <path d="M160.34,26.27h18.63a2.26,2.26,0,0,1,.35.34,0.75,0.75,0,0,1,.16.42c0,11.42,0,22.85,0,34.43h-18.78V61.1H175.41V26.27H160.34Z"/>
  <path d="M50,26.27C50,43.56,32.93,57.6,32.93,57.6S20,69.09,20,79.19h12.73c0-6.63,4.94-11.93,11-11.93H50Z" fill="none" stroke="var(--text-color)" stroke-width="2"/>

  <text x="35" y="25" font-size="30" font-weight="bold" font-family="sans-serif">LONG LIVE</text>
  <text x="70" y="51" font-size="30" font-weight="bold" font-family="sans-serif">SPAMART</text>
</svg>